Coordinates
version=1
nRows=27
nColumns=12
inDegrees=yes

Units are S.I. units (second, meters, Newtons, ...)
Angles are in degrees

endheader
time	SC_y	SC_z	SC_x	AC_y	AC_z	AC_x	GH_y	GH_z	GH_yy	EL_x	PS_y
       0.0              -14.13          29.92          56.24          30.27         -13.29          -18.6          -2.93         0.3177         -30.94          100.4          81.88
   0.04494              -14.14          29.92          56.24          30.28         -13.29          -18.6          -2.95         0.3215         -30.93          100.3          81.88
   0.08988              -14.14          29.92          56.24          30.28         -13.29          -18.6         -2.972         0.3255         -30.91          100.3          81.87
    0.1348              -14.15          29.92          56.25          30.28         -13.29         -18.59         -2.995         0.3298          -30.9          100.3          81.86
    0.1798              -14.15          29.91          56.25          30.29         -13.29         -18.59          -3.02         0.3344         -30.89          100.3          81.86
    0.2247              -14.16          29.91          56.26          30.29         -13.29         -18.59         -3.046         0.3393         -30.88          100.3          81.85
    0.2696              -14.16          29.91          56.26           30.3         -13.29         -18.59         -3.074         0.3445         -30.86          100.3          81.84
    0.3146              -14.17           29.9          56.27           30.3         -13.29         -18.58         -3.104         0.3501         -30.85          100.3          81.84
    0.3595              -14.18           29.9          56.27           30.3         -13.29         -18.58         -3.137         0.3561         -30.83          100.2          81.83
    0.4045              -14.18           29.9          56.28          30.31         -13.29         -18.58         -3.171         0.3625         -30.81          100.2          81.82
    0.4494              -14.19          29.89          56.28          30.31         -13.29         -18.58         -3.208         0.3694         -30.79          100.2          81.81
    0.4943               -14.2          29.89          56.29          30.32         -13.29         -18.57         -3.248         0.3768         -30.77          100.2           81.8
    0.5393              -14.21          29.89           56.3          30.33         -13.29         -18.57         -3.291         0.3848         -30.75          100.2          81.79
    0.5842              -14.22          29.88           56.3          30.33         -13.29         -18.56         -3.338         0.3934         -30.73          100.1          81.78
    0.6292              -14.23          29.88          56.31          30.34         -13.29         -18.56         -3.388         0.4028          -30.7          100.1          81.77
    0.6741              -14.24          29.87          56.32          30.35         -13.29         -18.55         -3.442         0.4129         -30.68          100.1          81.75
     0.719              -14.25          29.87          56.33          30.36         -13.29         -18.55         -3.502         0.4239         -30.65          100.0          81.74
     0.764              -14.26          29.86          56.34          30.37         -13.29         -18.54         -3.566         0.4359         -30.61          100.0          81.72
    0.8089              -14.28          29.85          56.35          30.38         -13.29         -18.54         -3.637          0.449         -30.58          99.97          81.71
    0.8538              -14.29          29.84          56.37          30.39         -13.29         -18.53         -3.714         0.4633         -30.54          99.93          81.69
    0.8988              -14.31          29.84          56.38           30.4         -13.29         -18.52         -3.799          0.479         -30.49          99.88          81.67
    0.9437              -14.33          29.83           56.4          30.41         -13.29         -18.52         -3.892         0.4964         -30.45          99.83          81.64
    0.9887              -14.35          29.82          56.41          30.43         -13.29         -18.51         -3.995         0.5155         -30.39          99.77          81.62
     1.034              -14.38          29.81          56.43          30.44         -13.29          -18.5         -4.109         0.5367         -30.34          99.71          81.59
     1.079               -14.4          29.79          56.45          30.46         -13.29         -18.49         -4.236         0.5603         -30.27          99.64          81.56
     1.123              -14.43          29.78          56.48          30.48         -13.29         -18.47         -4.378         0.5866          -30.2          99.56          81.53
     1.168              -14.46          29.76           56.5          30.51         -13.29         -18.46         -4.536          0.616         -30.12          99.48          81.49
